<?xml version="1.0"?>
<svg version="1.1" xmlns="http://www.w3.org/2000/svg" width="400" height="200" style=""><path fill="#" d="M19.92,111.49l0.45,2.52s1.2,0.63,2.94,0.63c1.92,0,3.63-0.84,3.63-2.43c0-3.51-10.14-1.95-10.14-9.36c0-4.14,3.27-6.36,7.62-6.36c3.39,0,6.6,1.2,6.6,1.2l-0.15,5.46l-2.76,0l-0.75-2.55s-1.35-0.45-2.64-0.45c-2.13,0-3.18,0.93-3.18,2.13c0,3.48,10.11,2.1,10.11,9.15c0,4.5-3.48,6.96-8.1,6.96c-3.39,0-6.69-1.14-6.69-1.14l0-5.76l3.06,0z M43.1553,100.45l0,9.45c0,3.45,0.99,4.8,3.93,4.8c3.18,0,3.87-1.71,3.87-5.25l0-9l-2.34-0.9l0-2.55l9.24-0.15l0,2.7l-2.25,0.9l0,9c0,5.79-2.22,8.91-8.67,8.91c-6.03,0-8.43-2.67-8.43-8.46l0-9.45l-2.22-0.9l0-2.55l9.21-0.15l0,2.7z M64.4406,114.55l0-14.1l-2.25-0.9l0-2.55l6.9-0.15l2.85,0c6,0,9.54,3.54,9.54,10.29s-3.9,10.86-9.99,10.86l-9.3,0l0-2.55z M69.0906,114.4l2.49,0c2.91,0,4.86-1.71,4.86-7.11c0-5.04-1.71-6.84-4.65-6.84l-2.7,0l0,13.95z M86.1159,118l0-2.55l2.25-0.9l0-14.1l-2.25-0.9l0-2.55l9.3-0.15l0,2.7l-2.4,0.9l0,4.8l7.86,0l0-4.8l-2.4-0.9l0-2.55l9.3-0.15l0,2.7l-2.25,0.9l0,14.1l2.25,0.9l0,2.55l-9.3,0l0-2.55l2.4-0.9l0-5.7l-7.86,0l0,5.7l2.4,0.9l0,2.55l-9.3,0z M112.1112,118l0-2.55l2.25-0.9l0-14.1l-2.25-0.9l0-2.55l9.15-0.15l0,2.7l-2.25,0.9l0,14.1l2.25,0.9l0,2.55l-9.15,0z M125.5965,118l0-2.55l2.25-0.9l0-14.1l-2.25-0.9l0-2.55l6.9-0.15l2.28,0c4.92,0,7.8,2.04,7.8,6.12c0,2.82-1.35,4.65-3.39,5.67c0.33,0.39,0.78,0.96,1.26,1.95l2.01,4.11l2.04,0.75l0,2.55l-5.55,0l-2.52-5.55c-1.02-2.28-1.29-2.76-2.88-2.76l-1.05,0l0,4.86l2.16,0.9l0,2.55l-9.06,0z M132.4965,106.54l1.71,0c2.37,0,3.75-1.14,3.75-3.15c0-1.71-1.14-2.94-3-2.94l-2.46,0l0,6.09z"/><path fill="#" d=""/></svg>
