<?xml version="1.0"?>
<svg version="1.1" xmlns="http://www.w3.org/2000/svg" width="400" height="200" style=""><path fill="#" d="M24.84,122.98l0.9,5.04s2.4,1.26,5.88,1.26c3.84,0,7.26-1.68,7.26-4.86c0-7.02-20.28-3.9-20.28-18.72c0-8.28,6.54-12.72,15.24-12.72c6.78,0,13.2,2.4,13.2,2.4l-0.3,10.92l-5.52,0l-1.5-5.1s-2.7-0.9-5.28-0.9c-4.26,0-6.36,1.86-6.36,4.26c0,6.96,20.22,4.2,20.22,18.3c0,9-6.96,13.92-16.2,13.92c-6.78,0-13.38-2.28-13.38-2.28l0-11.52l6.12,0z M71.3106,100.9l0,18.9c0,6.9,1.98,9.6,7.86,9.6c6.36,0,7.74-3.42,7.74-10.5l0-18l-4.68-1.8l0-5.1l18.48-0.3l0,5.4l-4.5,1.8l0,18c0,11.58-4.44,17.82-17.34,17.82c-12.06,0-16.86-5.34-16.86-16.92l0-18.9l-4.44-1.8l0-5.1l18.42-0.3l0,5.4z M113.8812,129.1l0-28.2l-4.5-1.8l0-5.1l13.8-0.3l5.7,0c12,0,19.08,7.08,19.08,20.58s-7.8,21.72-19.98,21.72l-18.6,0l0-5.1z M123.1812,128.8l4.98,0c5.82,0,9.72-3.42,9.72-14.22c0-10.08-3.42-13.68-9.3-13.68l-5.4,0l0,27.9z M157.2318,136l0-5.1l4.5-1.8l0-28.2l-4.5-1.8l0-5.1l18.6-0.3l0,5.4l-4.8,1.8l0,9.6l15.72,0l0-9.6l-4.8-1.8l0-5.1l18.6-0.3l0,5.4l-4.5,1.8l0,28.2l4.5,1.8l0,5.1l-18.6,0l0-5.1l4.8-1.8l0-11.4l-15.72,0l0,11.4l4.8,1.8l0,5.1l-18.6,0z M209.2224,136l0-5.1l4.5-1.8l0-28.2l-4.5-1.8l0-5.1l18.3-0.3l0,5.4l-4.5,1.8l0,28.2l4.5,1.8l0,5.1l-18.3,0z M236.193,136l0-5.1l4.5-1.8l0-28.2l-4.5-1.8l0-5.1l13.8-0.3l4.56,0c9.84,0,15.6,4.08,15.6,12.24c0,5.64-2.7,9.3-6.78,11.34c0.66,0.78,1.56,1.92,2.52,3.9l4.02,8.22l4.08,1.5l0,5.1l-11.1,0l-5.04-11.1c-2.04-4.56-2.58-5.52-5.76-5.52l-2.1,0l0,9.72l4.32,1.8l0,5.1l-18.12,0z M249.993,113.08l3.42,0c4.74,0,7.5-2.28,7.5-6.3c0-3.42-2.28-5.88-6-5.88l-4.92,0l0,12.18z"/><path fill="#" d=""/></svg>
